<mxfile host="app.diagrams.net" modified="2022-12-18T09:09:53.520Z" agent="5.0 (Windows NT 10.0; Win64; x64) AppleWebKit/537.36 (KHTML, like Gecko) Chrome/108.0.0.0 Safari/537.36" etag="3-C30YsJRQr6lSgdceGX" version="20.7.2" type="github">
  <diagram id="C5RBs43oDa-KdzZeNtuy" name="Page-1">
    <mxGraphModel dx="1366" dy="760" grid="1" gridSize="10" guides="1" tooltips="1" connect="1" arrows="1" fold="1" page="1" pageScale="1" pageWidth="827" pageHeight="1169" math="0" shadow="0">
      <root>
        <mxCell id="WIyWlLk6GJQsqaUBKTNV-0" />
        <mxCell id="WIyWlLk6GJQsqaUBKTNV-1" parent="WIyWlLk6GJQsqaUBKTNV-0" />
        <mxCell id="yt7eO_-orLEYN7xG8i13-5" value="" style="edgeStyle=orthogonalEdgeStyle;rounded=0;orthogonalLoop=1;jettySize=auto;html=1;" edge="1" parent="WIyWlLk6GJQsqaUBKTNV-1" source="yt7eO_-orLEYN7xG8i13-0" target="yt7eO_-orLEYN7xG8i13-4">
          <mxGeometry relative="1" as="geometry" />
        </mxCell>
        <mxCell id="yt7eO_-orLEYN7xG8i13-0" value="Start" style="ellipse;whiteSpace=wrap;html=1;" vertex="1" parent="WIyWlLk6GJQsqaUBKTNV-1">
          <mxGeometry x="300" y="10" width="70" height="40" as="geometry" />
        </mxCell>
        <mxCell id="yt7eO_-orLEYN7xG8i13-8" value="" style="edgeStyle=orthogonalEdgeStyle;rounded=0;orthogonalLoop=1;jettySize=auto;html=1;" edge="1" parent="WIyWlLk6GJQsqaUBKTNV-1" source="yt7eO_-orLEYN7xG8i13-1" target="yt7eO_-orLEYN7xG8i13-7">
          <mxGeometry relative="1" as="geometry" />
        </mxCell>
        <mxCell id="yt7eO_-orLEYN7xG8i13-1" value="n" style="shape=parallelogram;perimeter=parallelogramPerimeter;whiteSpace=wrap;html=1;fixedSize=1;" vertex="1" parent="WIyWlLk6GJQsqaUBKTNV-1">
          <mxGeometry x="210" y="190" width="250" height="30" as="geometry" />
        </mxCell>
        <mxCell id="yt7eO_-orLEYN7xG8i13-6" value="" style="edgeStyle=orthogonalEdgeStyle;rounded=0;orthogonalLoop=1;jettySize=auto;html=1;" edge="1" parent="WIyWlLk6GJQsqaUBKTNV-1" source="yt7eO_-orLEYN7xG8i13-4" target="yt7eO_-orLEYN7xG8i13-1">
          <mxGeometry relative="1" as="geometry" />
        </mxCell>
        <mxCell id="yt7eO_-orLEYN7xG8i13-4" value="&#xa;&lt;span style=&quot;color: rgb(0, 0, 0); font-family: Helvetica; font-size: 12px; font-style: normal; font-variant-ligatures: normal; font-variant-caps: normal; font-weight: 400; letter-spacing: normal; orphans: 2; text-align: center; text-indent: 0px; text-transform: none; widows: 2; word-spacing: 0px; -webkit-text-stroke-width: 0px; background-color: rgb(251, 251, 251); text-decoration-thickness: initial; text-decoration-style: initial; text-decoration-color: initial; float: none; display: inline !important;&quot;&gt;x[] ,y[],n ,sum,a,b,c,r&lt;/span&gt;&#xa;&#xa;" style="rounded=0;whiteSpace=wrap;html=1;" vertex="1" parent="WIyWlLk6GJQsqaUBKTNV-1">
          <mxGeometry x="220" y="80" width="230" height="60" as="geometry" />
        </mxCell>
        <mxCell id="yt7eO_-orLEYN7xG8i13-12" value="No" style="edgeStyle=orthogonalEdgeStyle;rounded=0;orthogonalLoop=1;jettySize=auto;html=1;" edge="1" parent="WIyWlLk6GJQsqaUBKTNV-1" source="yt7eO_-orLEYN7xG8i13-7">
          <mxGeometry relative="1" as="geometry">
            <mxPoint x="330" y="430" as="targetPoint" />
            <Array as="points">
              <mxPoint x="240" y="300" />
              <mxPoint x="240" y="430" />
            </Array>
          </mxGeometry>
        </mxCell>
        <mxCell id="yt7eO_-orLEYN7xG8i13-15" value="Yes" style="edgeStyle=orthogonalEdgeStyle;rounded=0;orthogonalLoop=1;jettySize=auto;html=1;" edge="1" parent="WIyWlLk6GJQsqaUBKTNV-1" source="yt7eO_-orLEYN7xG8i13-7">
          <mxGeometry x="0.7143" y="5" relative="1" as="geometry">
            <mxPoint x="335" y="370" as="targetPoint" />
            <Array as="points">
              <mxPoint x="335" y="390" />
              <mxPoint x="335" y="390" />
            </Array>
            <mxPoint as="offset" />
          </mxGeometry>
        </mxCell>
        <mxCell id="yt7eO_-orLEYN7xG8i13-7" value="i &amp;lt; n" style="rhombus;whiteSpace=wrap;html=1;" vertex="1" parent="WIyWlLk6GJQsqaUBKTNV-1">
          <mxGeometry x="295" y="260" width="80" height="80" as="geometry" />
        </mxCell>
        <mxCell id="yt7eO_-orLEYN7xG8i13-18" value="" style="edgeStyle=orthogonalEdgeStyle;rounded=0;orthogonalLoop=1;jettySize=auto;html=1;" edge="1" parent="WIyWlLk6GJQsqaUBKTNV-1" target="yt7eO_-orLEYN7xG8i13-17">
          <mxGeometry relative="1" as="geometry">
            <mxPoint x="395" y="405" as="sourcePoint" />
          </mxGeometry>
        </mxCell>
        <mxCell id="yt7eO_-orLEYN7xG8i13-22" value="" style="edgeStyle=orthogonalEdgeStyle;rounded=0;orthogonalLoop=1;jettySize=auto;html=1;" edge="1" parent="WIyWlLk6GJQsqaUBKTNV-1">
          <mxGeometry relative="1" as="geometry">
            <mxPoint x="335" y="420" as="sourcePoint" />
            <mxPoint x="335" y="470" as="targetPoint" />
          </mxGeometry>
        </mxCell>
        <mxCell id="yt7eO_-orLEYN7xG8i13-19" value="" style="edgeStyle=orthogonalEdgeStyle;rounded=0;orthogonalLoop=1;jettySize=auto;html=1;" edge="1" parent="WIyWlLk6GJQsqaUBKTNV-1" source="yt7eO_-orLEYN7xG8i13-17" target="yt7eO_-orLEYN7xG8i13-7">
          <mxGeometry relative="1" as="geometry" />
        </mxCell>
        <mxCell id="yt7eO_-orLEYN7xG8i13-20" style="edgeStyle=orthogonalEdgeStyle;rounded=0;orthogonalLoop=1;jettySize=auto;html=1;" edge="1" parent="WIyWlLk6GJQsqaUBKTNV-1" source="yt7eO_-orLEYN7xG8i13-17">
          <mxGeometry relative="1" as="geometry">
            <mxPoint x="340" y="240" as="targetPoint" />
            <Array as="points">
              <mxPoint x="500" y="240" />
            </Array>
          </mxGeometry>
        </mxCell>
        <mxCell id="yt7eO_-orLEYN7xG8i13-17" value="i&lt;br&gt;++" style="whiteSpace=wrap;html=1;" vertex="1" parent="WIyWlLk6GJQsqaUBKTNV-1">
          <mxGeometry x="440" y="270" width="120" height="60" as="geometry" />
        </mxCell>
        <mxCell id="yt7eO_-orLEYN7xG8i13-23" value="No" style="edgeStyle=orthogonalEdgeStyle;rounded=0;orthogonalLoop=1;jettySize=auto;html=1;" edge="1" parent="WIyWlLk6GJQsqaUBKTNV-1" source="yt7eO_-orLEYN7xG8i13-25">
          <mxGeometry relative="1" as="geometry">
            <mxPoint x="330" y="650" as="targetPoint" />
            <Array as="points">
              <mxPoint x="240" y="510" />
            </Array>
          </mxGeometry>
        </mxCell>
        <mxCell id="yt7eO_-orLEYN7xG8i13-24" value="Yes" style="edgeStyle=orthogonalEdgeStyle;rounded=0;orthogonalLoop=1;jettySize=auto;html=1;" edge="1" parent="WIyWlLk6GJQsqaUBKTNV-1" source="yt7eO_-orLEYN7xG8i13-25">
          <mxGeometry x="0.7143" y="5" relative="1" as="geometry">
            <mxPoint x="335" y="580" as="targetPoint" />
            <Array as="points">
              <mxPoint x="335" y="600" />
              <mxPoint x="335" y="600" />
            </Array>
            <mxPoint as="offset" />
          </mxGeometry>
        </mxCell>
        <mxCell id="yt7eO_-orLEYN7xG8i13-25" value="i &amp;lt; n" style="rhombus;whiteSpace=wrap;html=1;" vertex="1" parent="WIyWlLk6GJQsqaUBKTNV-1">
          <mxGeometry x="295" y="470" width="80" height="80" as="geometry" />
        </mxCell>
        <mxCell id="yt7eO_-orLEYN7xG8i13-26" value="" style="edgeStyle=orthogonalEdgeStyle;rounded=0;orthogonalLoop=1;jettySize=auto;html=1;" edge="1" parent="WIyWlLk6GJQsqaUBKTNV-1" target="yt7eO_-orLEYN7xG8i13-31">
          <mxGeometry relative="1" as="geometry">
            <mxPoint x="395" y="615" as="sourcePoint" />
          </mxGeometry>
        </mxCell>
        <mxCell id="yt7eO_-orLEYN7xG8i13-27" value="" style="edgeStyle=orthogonalEdgeStyle;rounded=0;orthogonalLoop=1;jettySize=auto;html=1;" edge="1" parent="WIyWlLk6GJQsqaUBKTNV-1">
          <mxGeometry relative="1" as="geometry">
            <mxPoint x="335" y="680" as="targetPoint" />
            <mxPoint x="335" y="630" as="sourcePoint" />
          </mxGeometry>
        </mxCell>
        <mxCell id="yt7eO_-orLEYN7xG8i13-29" value="" style="edgeStyle=orthogonalEdgeStyle;rounded=0;orthogonalLoop=1;jettySize=auto;html=1;" edge="1" parent="WIyWlLk6GJQsqaUBKTNV-1" source="yt7eO_-orLEYN7xG8i13-31" target="yt7eO_-orLEYN7xG8i13-25">
          <mxGeometry relative="1" as="geometry" />
        </mxCell>
        <mxCell id="yt7eO_-orLEYN7xG8i13-30" style="edgeStyle=orthogonalEdgeStyle;rounded=0;orthogonalLoop=1;jettySize=auto;html=1;" edge="1" parent="WIyWlLk6GJQsqaUBKTNV-1" source="yt7eO_-orLEYN7xG8i13-31">
          <mxGeometry relative="1" as="geometry">
            <mxPoint x="340" y="450" as="targetPoint" />
            <Array as="points">
              <mxPoint x="500" y="450" />
            </Array>
          </mxGeometry>
        </mxCell>
        <mxCell id="yt7eO_-orLEYN7xG8i13-31" value="i&lt;br&gt;++" style="whiteSpace=wrap;html=1;" vertex="1" parent="WIyWlLk6GJQsqaUBKTNV-1">
          <mxGeometry x="440" y="480" width="120" height="60" as="geometry" />
        </mxCell>
        <mxCell id="yt7eO_-orLEYN7xG8i13-33" value="&#xa;&lt;br style=&quot;border-color: var(--border-color); color: rgb(0, 0, 0); font-family: Helvetica; font-size: 12px; font-style: normal; font-variant-ligatures: normal; font-variant-caps: normal; font-weight: 400; letter-spacing: normal; orphans: 2; text-align: center; text-indent: 0px; text-transform: none; widows: 2; word-spacing: 0px; -webkit-text-stroke-width: 0px; background-color: rgb(251, 251, 251); text-decoration-thickness: initial; text-decoration-style: initial; text-decoration-color: initial;&quot;&gt;&lt;span style=&quot;color: rgb(0, 0, 0); font-family: Helvetica; font-size: 12px; font-style: normal; font-variant-ligatures: normal; font-variant-caps: normal; font-weight: 400; letter-spacing: normal; orphans: 2; text-align: center; text-indent: 0px; text-transform: none; widows: 2; word-spacing: 0px; -webkit-text-stroke-width: 0px; background-color: rgb(251, 251, 251); text-decoration-thickness: initial; text-decoration-style: initial; text-decoration-color: initial; float: none; display: inline !important;&quot;&gt;Xsum+=sum+x[i]&amp;nbsp;&lt;/span&gt;&lt;br style=&quot;border-color: var(--border-color); color: rgb(0, 0, 0); font-family: Helvetica; font-size: 12px; font-style: normal; font-variant-ligatures: normal; font-variant-caps: normal; font-weight: 400; letter-spacing: normal; orphans: 2; text-align: center; text-indent: 0px; text-transform: none; widows: 2; word-spacing: 0px; -webkit-text-stroke-width: 0px; background-color: rgb(251, 251, 251); text-decoration-thickness: initial; text-decoration-style: initial; text-decoration-color: initial;&quot;&gt;&lt;span style=&quot;color: rgb(0, 0, 0); font-family: Helvetica; font-size: 12px; font-style: normal; font-variant-ligatures: normal; font-variant-caps: normal; font-weight: 400; letter-spacing: normal; orphans: 2; text-align: center; text-indent: 0px; text-transform: none; widows: 2; word-spacing: 0px; -webkit-text-stroke-width: 0px; background-color: rgb(251, 251, 251); text-decoration-thickness: initial; text-decoration-style: initial; text-decoration-color: initial; float: none; display: inline !important;&quot;&gt;Ysum+=sum+y[i]&lt;/span&gt;&#xa;&#xa;" style="rounded=0;whiteSpace=wrap;html=1;" vertex="1" parent="WIyWlLk6GJQsqaUBKTNV-1">
          <mxGeometry x="280" y="600" width="120" height="30" as="geometry" />
        </mxCell>
        <mxCell id="yt7eO_-orLEYN7xG8i13-34" value="&#xa;&lt;span style=&quot;border-color: var(--border-color); color: rgb(0, 0, 0); font-family: Helvetica; font-size: 12px; font-style: normal; font-variant-ligatures: normal; font-variant-caps: normal; font-weight: 400; letter-spacing: normal; orphans: 2; text-align: center; text-indent: 0px; text-transform: none; widows: 2; word-spacing: 0px; -webkit-text-stroke-width: 0px; text-decoration-thickness: initial; text-decoration-style: initial; text-decoration-color: initial; background-color: rgb(251, 251, 251); float: none; display: inline !important;&quot;&gt;x[i],y[i]&lt;/span&gt;&lt;br style=&quot;border-color: var(--border-color); color: rgb(0, 0, 0); font-family: Helvetica; font-size: 12px; font-style: normal; font-variant-ligatures: normal; font-variant-caps: normal; font-weight: 400; letter-spacing: normal; orphans: 2; text-align: center; text-indent: 0px; text-transform: none; widows: 2; word-spacing: 0px; -webkit-text-stroke-width: 0px; background-color: rgb(251, 251, 251); text-decoration-thickness: initial; text-decoration-style: initial; text-decoration-color: initial;&quot;&gt;&#xa;&#xa;" style="shape=parallelogram;perimeter=parallelogramPerimeter;whiteSpace=wrap;html=1;fixedSize=1;" vertex="1" parent="WIyWlLk6GJQsqaUBKTNV-1">
          <mxGeometry x="270" y="390" width="120" height="30" as="geometry" />
        </mxCell>
        <mxCell id="yt7eO_-orLEYN7xG8i13-58" value="" style="edgeStyle=orthogonalEdgeStyle;rounded=0;orthogonalLoop=1;jettySize=auto;html=1;" edge="1" parent="WIyWlLk6GJQsqaUBKTNV-1" source="yt7eO_-orLEYN7xG8i13-46" target="yt7eO_-orLEYN7xG8i13-49">
          <mxGeometry relative="1" as="geometry" />
        </mxCell>
        <mxCell id="yt7eO_-orLEYN7xG8i13-46" value="Xavg = Xsum/n&lt;br&gt;Yavg = Ysum/n" style="rounded=0;whiteSpace=wrap;html=1;" vertex="1" parent="WIyWlLk6GJQsqaUBKTNV-1">
          <mxGeometry x="240" y="680" width="200" height="40" as="geometry" />
        </mxCell>
        <mxCell id="yt7eO_-orLEYN7xG8i13-47" value="No" style="edgeStyle=orthogonalEdgeStyle;rounded=0;orthogonalLoop=1;jettySize=auto;html=1;" edge="1" parent="WIyWlLk6GJQsqaUBKTNV-1" source="yt7eO_-orLEYN7xG8i13-49">
          <mxGeometry relative="1" as="geometry">
            <mxPoint x="360" y="970" as="targetPoint" />
            <Array as="points">
              <mxPoint x="240" y="800" />
            </Array>
          </mxGeometry>
        </mxCell>
        <mxCell id="yt7eO_-orLEYN7xG8i13-48" value="Yes" style="edgeStyle=orthogonalEdgeStyle;rounded=0;orthogonalLoop=1;jettySize=auto;html=1;" edge="1" parent="WIyWlLk6GJQsqaUBKTNV-1" source="yt7eO_-orLEYN7xG8i13-49">
          <mxGeometry x="0.7143" y="5" relative="1" as="geometry">
            <mxPoint x="335" y="870" as="targetPoint" />
            <Array as="points">
              <mxPoint x="335" y="890" />
              <mxPoint x="335" y="890" />
            </Array>
            <mxPoint as="offset" />
          </mxGeometry>
        </mxCell>
        <mxCell id="yt7eO_-orLEYN7xG8i13-49" value="i &amp;lt; n" style="rhombus;whiteSpace=wrap;html=1;" vertex="1" parent="WIyWlLk6GJQsqaUBKTNV-1">
          <mxGeometry x="300" y="760" width="80" height="80" as="geometry" />
        </mxCell>
        <mxCell id="yt7eO_-orLEYN7xG8i13-50" value="" style="edgeStyle=orthogonalEdgeStyle;rounded=0;orthogonalLoop=1;jettySize=auto;html=1;" edge="1" parent="WIyWlLk6GJQsqaUBKTNV-1" target="yt7eO_-orLEYN7xG8i13-53">
          <mxGeometry relative="1" as="geometry">
            <mxPoint x="395" y="905" as="sourcePoint" />
          </mxGeometry>
        </mxCell>
        <mxCell id="yt7eO_-orLEYN7xG8i13-51" value="" style="edgeStyle=orthogonalEdgeStyle;rounded=0;orthogonalLoop=1;jettySize=auto;html=1;" edge="1" parent="WIyWlLk6GJQsqaUBKTNV-1" source="yt7eO_-orLEYN7xG8i13-53" target="yt7eO_-orLEYN7xG8i13-49">
          <mxGeometry relative="1" as="geometry" />
        </mxCell>
        <mxCell id="yt7eO_-orLEYN7xG8i13-52" style="edgeStyle=orthogonalEdgeStyle;rounded=0;orthogonalLoop=1;jettySize=auto;html=1;" edge="1" parent="WIyWlLk6GJQsqaUBKTNV-1" source="yt7eO_-orLEYN7xG8i13-53">
          <mxGeometry relative="1" as="geometry">
            <mxPoint x="340" y="740" as="targetPoint" />
            <Array as="points">
              <mxPoint x="500" y="740" />
            </Array>
          </mxGeometry>
        </mxCell>
        <mxCell id="yt7eO_-orLEYN7xG8i13-53" value="i&lt;br&gt;++" style="whiteSpace=wrap;html=1;" vertex="1" parent="WIyWlLk6GJQsqaUBKTNV-1">
          <mxGeometry x="460" y="785" width="100" height="30" as="geometry" />
        </mxCell>
        <mxCell id="yt7eO_-orLEYN7xG8i13-81" value="" style="edgeStyle=orthogonalEdgeStyle;rounded=0;orthogonalLoop=1;jettySize=auto;html=1;" edge="1" parent="WIyWlLk6GJQsqaUBKTNV-1" source="yt7eO_-orLEYN7xG8i13-55" target="yt7eO_-orLEYN7xG8i13-74">
          <mxGeometry relative="1" as="geometry" />
        </mxCell>
        <mxCell id="yt7eO_-orLEYN7xG8i13-55" value="A = (x[i]-Xavg) * (y[i]-Yavg)&lt;br&gt;aSum += A" style="rounded=0;whiteSpace=wrap;html=1;" vertex="1" parent="WIyWlLk6GJQsqaUBKTNV-1">
          <mxGeometry x="280" y="890" width="160" height="50" as="geometry" />
        </mxCell>
        <mxCell id="yt7eO_-orLEYN7xG8i13-56" style="edgeStyle=orthogonalEdgeStyle;rounded=0;orthogonalLoop=1;jettySize=auto;html=1;exitX=0.5;exitY=1;exitDx=0;exitDy=0;" edge="1" parent="WIyWlLk6GJQsqaUBKTNV-1" source="yt7eO_-orLEYN7xG8i13-55" target="yt7eO_-orLEYN7xG8i13-55">
          <mxGeometry relative="1" as="geometry" />
        </mxCell>
        <mxCell id="yt7eO_-orLEYN7xG8i13-57" value="b1 += sqr(x[i]-Xavg)&lt;br&gt;b2 +=sqr(y[i]-Yavg)" style="whiteSpace=wrap;html=1;rounded=0;" vertex="1" parent="WIyWlLk6GJQsqaUBKTNV-1">
          <mxGeometry x="295" y="1160" width="150" height="40" as="geometry" />
        </mxCell>
        <mxCell id="yt7eO_-orLEYN7xG8i13-72" value="No" style="edgeStyle=orthogonalEdgeStyle;rounded=0;orthogonalLoop=1;jettySize=auto;html=1;" edge="1" parent="WIyWlLk6GJQsqaUBKTNV-1" source="yt7eO_-orLEYN7xG8i13-74">
          <mxGeometry relative="1" as="geometry">
            <mxPoint x="340" y="1230" as="targetPoint" />
            <Array as="points">
              <mxPoint x="260" y="1040" />
            </Array>
          </mxGeometry>
        </mxCell>
        <mxCell id="yt7eO_-orLEYN7xG8i13-73" value="Yes" style="edgeStyle=orthogonalEdgeStyle;rounded=0;orthogonalLoop=1;jettySize=auto;html=1;entryX=0.391;entryY=-0.058;entryDx=0;entryDy=0;entryPerimeter=0;" edge="1" parent="WIyWlLk6GJQsqaUBKTNV-1" source="yt7eO_-orLEYN7xG8i13-74" target="yt7eO_-orLEYN7xG8i13-57">
          <mxGeometry x="0.7143" y="5" relative="1" as="geometry">
            <mxPoint x="355" y="1110" as="targetPoint" />
            <Array as="points">
              <mxPoint x="355" y="1127" />
            </Array>
            <mxPoint as="offset" />
          </mxGeometry>
        </mxCell>
        <mxCell id="yt7eO_-orLEYN7xG8i13-74" value="i &amp;lt; n" style="rhombus;whiteSpace=wrap;html=1;" vertex="1" parent="WIyWlLk6GJQsqaUBKTNV-1">
          <mxGeometry x="320" y="1000" width="80" height="80" as="geometry" />
        </mxCell>
        <mxCell id="yt7eO_-orLEYN7xG8i13-75" value="" style="edgeStyle=orthogonalEdgeStyle;rounded=0;orthogonalLoop=1;jettySize=auto;html=1;exitX=1;exitY=0.5;exitDx=0;exitDy=0;" edge="1" parent="WIyWlLk6GJQsqaUBKTNV-1" target="yt7eO_-orLEYN7xG8i13-78" source="yt7eO_-orLEYN7xG8i13-57">
          <mxGeometry relative="1" as="geometry">
            <mxPoint x="415" y="1145" as="sourcePoint" />
          </mxGeometry>
        </mxCell>
        <mxCell id="yt7eO_-orLEYN7xG8i13-76" value="" style="edgeStyle=orthogonalEdgeStyle;rounded=0;orthogonalLoop=1;jettySize=auto;html=1;" edge="1" parent="WIyWlLk6GJQsqaUBKTNV-1" source="yt7eO_-orLEYN7xG8i13-78" target="yt7eO_-orLEYN7xG8i13-74">
          <mxGeometry relative="1" as="geometry" />
        </mxCell>
        <mxCell id="yt7eO_-orLEYN7xG8i13-77" style="edgeStyle=orthogonalEdgeStyle;rounded=0;orthogonalLoop=1;jettySize=auto;html=1;" edge="1" parent="WIyWlLk6GJQsqaUBKTNV-1" source="yt7eO_-orLEYN7xG8i13-78">
          <mxGeometry relative="1" as="geometry">
            <mxPoint x="360" y="980" as="targetPoint" />
            <Array as="points">
              <mxPoint x="520" y="980" />
            </Array>
          </mxGeometry>
        </mxCell>
        <mxCell id="yt7eO_-orLEYN7xG8i13-78" value="i&lt;br&gt;++" style="whiteSpace=wrap;html=1;" vertex="1" parent="WIyWlLk6GJQsqaUBKTNV-1">
          <mxGeometry x="480" y="1025" width="100" height="30" as="geometry" />
        </mxCell>
        <mxCell id="yt7eO_-orLEYN7xG8i13-79" value="B = sqrt(b1*b2)&lt;br&gt;r= A/b" style="rounded=0;whiteSpace=wrap;html=1;" vertex="1" parent="WIyWlLk6GJQsqaUBKTNV-1">
          <mxGeometry x="295" y="1250" width="160" height="50" as="geometry" />
        </mxCell>
        <mxCell id="yt7eO_-orLEYN7xG8i13-80" style="edgeStyle=orthogonalEdgeStyle;rounded=0;orthogonalLoop=1;jettySize=auto;html=1;exitX=0.5;exitY=1;exitDx=0;exitDy=0;" edge="1" parent="WIyWlLk6GJQsqaUBKTNV-1" source="yt7eO_-orLEYN7xG8i13-79" target="yt7eO_-orLEYN7xG8i13-79">
          <mxGeometry relative="1" as="geometry" />
        </mxCell>
      </root>
    </mxGraphModel>
  </diagram>
</mxfile>
